<?xml version="1.0" encoding="utf-8"?>
<!-- Generator: Adobe Illustrator 22.1.0, SVG Export Plug-In . SVG Version: 6.00 Build 0)  -->
<svg version="1.1" id="Ebene_1" xmlns="http://www.w3.org/2000/svg" xmlns:xlink="http://www.w3.org/1999/xlink" x="0px" y="0px"
	 viewBox="0 0 1280 1024" style="enable-background:new 0 0 1280 1024;" xml:space="preserve">
<style type="text/css">
	.st0{opacity:0.25;}
</style>
<g>
	<g>
		<path d="M496.7,537.8c-13.8,1.5-25,10.4-27.8,24.4c-2.7,13.4,2.1,27.1,13.8,34.5c11.1,7,27.4,8,38.7,0.9
			c11.5-7.2,15.4-21,13.3-33.8c-2.5-15.9-15-24.8-29.7-28.6c-3.7-1-5.3,4.8-1.6,5.8c14.1,3.7,25,12.1,25.8,27.6
			c0.8,14.4-7.9,26.5-22.8,27.7c-13.7,1.2-28.3-5.8-31.7-20.1c-3.6-15.5,5.9-30.6,21.9-32.4C500.5,543.4,500.5,537.4,496.7,537.8
			L496.7,537.8z"/>
	</g>
</g>
<g>
	<g>
		<path d="M498.8,575.8c-0.1,2-0.1,4.1,0.1,6.1c0.2,1.6,1.3,3,3,3c1.5,0,3.2-1.4,3-3c-0.2-2-0.2-4.1-0.1-6.1c0.1-1.6-1.4-3-3-3
			C500.1,572.8,498.8,574.1,498.8,575.8L498.8,575.8z"/>
	</g>
</g>
<g>
	<g>
		<path d="M514.3,575c0,1.6,0,3.3,0,4.9c0,1.6,1.4,3.1,3,3c1.6-0.1,3-1.3,3-3c0-1.6,0-3.3,0-4.9c0-1.6-1.4-3.1-3-3
			C515.6,572.1,514.3,573.4,514.3,575L514.3,575z"/>
	</g>
</g>
<g>
	<g>
		<path d="M483.7,597.2c0.4,9.7-0.9,19.3-1.5,29c-0.4,7.2-1.2,15.8,3.6,21.8c10.5,13,30.3,12.6,45.3,11.9c3.8-0.2,3.9-6.2,0-6
			c-7.8,0.4-15.7,0.8-23.4-0.8c-6.4-1.3-14.5-4.2-18-10.1c-3.5-6-1.7-15.8-1.1-22.5c0.6-7.7,1.4-15.4,1.1-23.2
			C489.5,593.3,483.5,593.3,483.7,597.2L483.7,597.2z"/>
	</g>
</g>
<g>
	<g>
		<path d="M508.2,635.5c3,3.6,8.4,3.3,12.5,2.5c2.8-0.5,5.8-1.4,8.3-2.9c1.8-1,3-3,4.7-4c1.1-0.6-0.1-2,1,1.3c0.3,1,0.5,2.1,0.8,3.1
			c0.7,3.2,1.2,6.6,1.5,9.9c0.2,2.1,0.8,5.4-0.2,7.4c-1.2,2.6-4.5,1.5-7,1.2c-3.8-0.5-3.8,5.5,0,6c5.4,0.7,11,0.5,12.8-5.6
			c1.9-6.4,0-14.6-1.4-21c-1-4.5-3.6-11.4-9.4-8.3c-2.4,1.3-3.8,3.7-6.2,5c-2.9,1.6-10.6,4.2-13.1,1.1
			C510,628.2,505.8,632.5,508.2,635.5L508.2,635.5z"/>
	</g>
</g>
<g>
	<g>
		<path d="M540.9,631.5c0.5-0.9,2.3-2.3,3.4-1.5c0.5,0.4,0.6,2.5,0.7,3c0.5,2.9,0.7,5.9,0.8,8.8c0.1,2.1,0.6,5,0,7
			c-0.9,3.2-4,3.9-6.9,4.5c-3.8,0.8-2.2,6.6,1.6,5.8c4.5-1,9.1-2.6,10.8-7.3c1.9-5.1,0.6-12.7-0.1-17.9c-0.5-3.9-1.2-9.1-5.3-10.9
			c-4.6-2.1-8.2,1.7-10.1,5.4C534,631.9,539.1,634.9,540.9,631.5L540.9,631.5z"/>
	</g>
</g>
<g>
	<g>
		<path d="M515.6,596.9c0.6,13-1.7,26.7,7.5,37.3c2.5,2.9,6.8-1.3,4.2-4.2c-7.9-9-5.3-22.1-5.7-33.1
			C521.4,593.1,515.4,593.1,515.6,596.9L515.6,596.9z"/>
	</g>
</g>
<g>
	<g>
		<path d="M436.9,434.3c-7.2-7.9-15.5-13.7-26.6-10.8c-10.4,2.7-17.4,11.3-23.1,19.8c-12.4,18.6-20.3,41.7-14.2,64
			c5.6,20.5,23.5,36.4,45.3,36.5c20,0.1,37.5-23,34-42.4c-1.9-10.7-11.1-18.4-21.7-19.7c-11-1.3-21.3,4.9-26.8,14.3
			c-3,5,4.8,9.5,7.8,4.5c3.7-6.2,10.4-10.7,17.9-9.9c7.5,0.8,13.6,6.5,14.3,14.1c0.7,7.3-3,14.8-7.5,20.4c-5.9,7.2-13,10.7-22.4,9.4
			c-16.3-2.3-28.3-14.8-32.3-30.3c-4.2-16.2,0.3-33,8.1-47.4c4.3-7.8,9.5-17,17.2-21.9c3.9-2.5,8.7-4,13.3-2.6
			c4.4,1.4,7.5,5.1,10.5,8.4C434.5,445,440.8,438.6,436.9,434.3L436.9,434.3z"/>
	</g>
</g>
<g>
	<g>
		<path d="M463.8,464c0.6,11.8,1.8,24.2,5,35.6c2.4,8.7,9.1,17.8,19.3,16.4c8.5-1.2,12.6-9.5,14.5-17c3.1-12.1,3.9-24.8,2.7-37.2
			c-0.5-5.7-9.5-5.8-9,0c0.8,9.1,0.7,18.3-0.9,27.3c-0.8,4.8-1.9,15.3-7.3,17.6c-13.4,5.7-15-36.3-15.3-42.8
			C472.5,458.2,463.5,458.2,463.8,464L463.8,464z"/>
	</g>
</g>
<g>
	<g>
		<path d="M514.3,451.4c1.7,18,4.2,35.9,7.6,53.7c1.1,5.7,9.8,3.3,8.7-2.4c-3.3-17-5.7-34.1-7.3-51.3
			C522.7,445.7,513.7,445.6,514.3,451.4L514.3,451.4z"/>
	</g>
</g>
<g>
	<g>
		<path d="M541.1,415.5c2.2,21.7,6.3,43.2,12.4,64.2c2.2,7.5,4.2,18,12.6,20.9c6.8,2.4,14.7-0.7,17.8-7.2c2.5-5.2-5.3-9.8-7.8-4.5
			c-1.1,2.3-3.3,4-6,3.5c-3.4-0.6-4.6-4.3-5.5-7.1c-2.5-7.4-4.5-15-6.4-22.6c-3.8-15.5-6.5-31.3-8.2-47.2
			C549.5,409.8,540.5,409.8,541.1,415.5L541.1,415.5z"/>
	</g>
</g>
<g>
	<g>
		<path d="M586.5,441.6c3,18,5.9,36,8.7,54c0.9,5.7,9.5,3.3,8.7-2.4c-2.7-18-5.6-36.1-8.7-54C594.3,433.5,585.6,436,586.5,441.6
			L586.5,441.6z"/>
	</g>
</g>
<g>
	<g>
		<path d="M662.8,440.3c-1.3-5.2-5.2-9.6-9.6-12.5c-4.4-2.9-8.1-3.2-12.9-1.1c-10.6,4.6-15,13.6-16.7,24.6
			c-2.1,13.5,0.2,27.5,6.7,39.5c2.5,4.8,6.1,10.7,12.4,9.9c5.7-0.8,10.3-6.7,13.3-11.2c9.2-14.2,8.2-31.8,6.9-48
			c-2.9,0.4-5.9,0.8-8.8,1.2c5,17.9,14.7,34.1,28.2,46.9c4.2,4,10.6-2.4,6.4-6.4C676.2,471.4,667.4,456.8,662.8,440.3
			c-1.4-4.7-9.4-4-8.9,1.2c1,12.4,2.3,25.7-2.6,37.6c-1.2,2.8-2.7,5.5-4.6,7.9c-0.8,1.1-1.7,2.1-2.8,3c-1.9,1.7-1.8,2.2-3.3,0.6
			c-3.8-3.8-5.8-11.2-7.1-16.3c-2.6-10.4-2.8-23.4,2.6-33c1.6-2.8,5.6-6.5,9.1-6.9c3.8-0.4,8,4.7,8.9,8.3
			C655.5,448.3,664.2,445.9,662.8,440.3L662.8,440.3z"/>
	</g>
</g>
<g>
	<g>
		<path d="M692.4,433.7c3.3,15.3,6.5,30.7,7.8,46.3c0.5,5.7,8.9,5.9,9,0c0.1-14.5-0.7-31.9,13.7-40.3c1.3-0.7,2.7-1.5,4.1-1.8
			c2.8-0.6,3.5-0.2,4.4,2.3c1.6,4.1,2.6,8.4,3.6,12.7c2,8.8,3.1,17.7,3.4,26.8c0.2,5.8,9.2,5.8,9,0c-0.4-12.3-2.2-24.6-5.7-36.5
			c-1.2-4.3-2.4-9.5-5.9-12.6c-3.6-3.1-8.5-2.5-12.7-1c-8.6,3.1-15.4,10.2-19.1,18.4c-4.5,10-3.9,21.2-4,31.9c3,0,6,0,9,0
			c-1.4-16.4-4.7-32.6-8.1-48.7C699.9,425.7,691.2,428.1,692.4,433.7L692.4,433.7z"/>
	</g>
</g>
<g>
	<g>
		<path d="M772.4,478.5c-5.8-10.1-5.1-22.1-3.8-33.3c1.4-11.5,15.6-16.4,22.2-5.9c4.9,7.8,9.8,20.4,7.2,29.7
			c-3.2,11.5-17.1,10.6-26.5,9.9c-5.8-0.4-5.7,8.6,0,9c13.7,1,30.2-0.5,35-15.9c2.3-7.4,0.8-15.2-1.4-22.4c-2.1-6.7-4.8-13.7-9.5-19
			c-10-11.5-28.2-6.1-34.2,6.6c-3.1,6.5-2.8,16.3-2.6,23.3c0.3,7.9,1.9,15.6,5.9,22.5C767.5,488,775.2,483.5,772.4,478.5
			L772.4,478.5z"/>
	</g>
</g>
<g>
	<g>
		<path d="M605.2,541.4c3.2,25.1,4.7,50.4,4.3,75.7c-0.1,5.8,8.9,5.8,9,0c0.4-25.3-1-50.6-4.3-75.7
			C613.4,535.7,604.4,535.6,605.2,541.4L605.2,541.4z"/>
	</g>
</g>
<g>
	<g>
		<path d="M608,554.2c1.1-5.2,9.2-8.9,13.7-10.4c5.4-1.8,11.2-2.1,16.4,0.5c4.1,2.1,8,6.3,8,11.2c0.1,5.1-4.6,11-10.1,10.2
			c-5.6-0.8-8,6.9-2.4,8.7c8.1,2.6,17,4.6,24.8,8.2c2.9,1.4,6.1,3.2,7,6.6c1,3.9-1.7,8-4.1,10.8c-9.5,11-27.3,18.5-41.2,12.2
			c-5.2-2.4-9.8,5.4-4.5,7.8c18.8,8.5,43.2-0.3,54.8-17c5.6-8.1,5.9-18.6-2.3-25.1c-3.7-2.9-8.2-4.5-12.6-6
			c-6.5-2.1-13-4.2-19.4-6.3c-0.8,2.9-1.6,5.8-2.4,8.7c8.8,1.3,16.8-3.5,20.1-11.8c3.4-8.4,0-17.4-6.7-23
			c-7.1-5.9-16.5-7.4-25.4-5.1c-8.3,2.1-20.4,8.2-22.4,17.4C598.2,557.5,606.8,559.9,608,554.2L608,554.2z"/>
	</g>
</g>
<g>
	<g>
		<path d="M714.1,595.8c-11,5.8-21.2-2.1-24.4-12.8c-3-10.2,2.7-21.4,13.2-24.2c9.3-2.5,19.8,3.8,22.8,12.8c3.2,10-2.9,20.4-12,24.4
			c-5.3,2.4-0.7,10.1,4.5,7.8c10.5-4.7,17.5-15.8,17.3-27.3c-0.3-11.4-8-21.2-18.5-25.4c-11-4.3-23.4-0.7-30.8,8.4
			c-8.2,10-8,23-1.7,34c6.9,12.1,21.8,16.5,34.1,9.9C723.8,600.9,719.2,593.1,714.1,595.8L714.1,595.8z"/>
	</g>
</g>
<g>
	<g>
		<path d="M770.3,543c-13.7-10.3-29.1,17.4-19.2,27.6c5.6,5.7,18.4,4.8,21.8,12.4c2.4,5.3-4,6.7-8,6.7c-5,0-9.7-0.8-14.7,0
			c-5.7,0.8-3.3,9.5,2.4,8.7c7.9-1.1,15.8,2.1,23.2-2.1c5.9-3.4,8.3-10.2,5.5-16.4c-3.3-7.5-10.6-9.9-17.7-12.5
			c-4.3-1.6-7.6-2.7-6.1-8c0.9-3.1,3.9-11.8,8.3-8.5C770.4,554.2,774.8,546.4,770.3,543L770.3,543z"/>
	</g>
</g>
<g>
	<g>
		<path d="M813.8,539.8c-8.8,0.5-18.2,2-23.1,10.2c-4.8,8-6.9,19.6-3.9,28.5c6.7,19.6,29.2,25.7,46.7,16.7c5.2-2.6,0.6-10.4-4.5-7.8
			c-12.2,6.3-28.6,2.6-33.5-11.3c-2.2-6.3-0.6-13.5,1.9-19.5c2.9-6.8,9.8-7.4,16.4-7.9C819.5,548.4,819.6,539.4,813.8,539.8
			L813.8,539.8z"/>
	</g>
</g>
<g>
	<g>
		<path d="M863.1,589c-3.7,3.3-9.2,0.7-11.9-2.6c-3.2-3.9-4.5-9-5.6-13.8c-2.1-8.9-2.8-22,8.9-24c22.1-3.7,33.2,36.5,9.8,42.1
			c-5.6,1.4-3.2,10,2.4,8.7c27.6-6.7,23.7-45.5,2-57c-10.3-5.4-24.3-3.4-30.4,7.3c-5.8,10.2-2.7,24.3,1.5,34.6
			c4.7,11.5,18.5,21,29.7,11.1C873.8,591.5,867.4,585.2,863.1,589L863.1,589z"/>
	</g>
</g>
<g>
	<g>
		<path d="M461.6,508.4c26.3-13.3,52.5-26.7,78.8-40c5.2-2.6,0.6-10.4-4.5-7.8c-26.3,13.3-52.5,26.7-78.8,40
			C451.9,503.2,456.5,511,461.6,508.4L461.6,508.4z"/>
	</g>
</g>
<g>
	<g>
		<path d="M461,392.9c-0.2,11.7,0.6,23.3,2.2,34.9c0.8,5.7,9.5,3.3,8.7-2.4c-1.5-10.8-2.1-21.6-1.9-32.5
			C470.1,387.1,461.1,387.1,461,392.9L461,392.9z"/>
	</g>
</g>
<g>
	<g>
		<path d="M459.6,371.1c5.8,0,5.8-9,0-9C453.8,362.1,453.8,371.1,459.6,371.1L459.6,371.1z"/>
	</g>
</g>
<g>
	<g>
		<path d="M484.4,387.6c1.2,9.9-1.9,20.1,2.4,29.5c3.7,7.9,11.9,12.5,20.4,9.3c9.1-3.4,13.2-12.6,13.9-21.7
			c0.7-9.1,0.4-20.5-5.8-27.7c-3.8-4.4-10.1,2-6.4,6.4c3.9,4.5,3.4,13.2,3.3,18.8c-0.1,6.1-1.8,13.8-8.5,15.9
			c-14.1,4.5-9.6-24.2-10.3-30.5C492.8,382,483.8,381.9,484.4,387.6L484.4,387.6z"/>
	</g>
</g>
<g>
	<g>
		<path d="M515.6,440.1c5.8,0,5.8-9,0-9C509.9,431.1,509.8,440.1,515.6,440.1L515.6,440.1z"/>
	</g>
</g>
<g>
	<g>
		<path d="M586.4,428.4c5.8,0,5.8-9,0-9C580.7,419.4,580.6,428.4,586.4,428.4L586.4,428.4z"/>
	</g>
</g>
<g>
	<g>
		<path d="M955.9,412.9c-11.3-5.8-18.4-21.6-15.3-34.1c1.7-6.8,8-10.6,14.1-13.3c6.9-3,15.1-5.8,22.6-3.5
			c7.8,2.4,10.5,10.2,12.5,17.3c2.1,7.4,3.1,15.4,0.7,22.8c-2.3,7-7.6,13.2-15,14.7c-6.6,1.3-17.6,0-22.3-5.5
			c-2.5-3-6.7,1.3-4.2,4.2c4.4,5.2,11.7,6.6,18.2,7.3c7.3,0.8,14.2-0.6,19.9-5.3c12.1-10,12.3-26.9,8.2-40.8
			c-1.9-6.5-4.5-13.6-10.3-17.7c-5.9-4.2-13.4-4.6-20.2-3.2c-12.7,2.5-28.5,9.7-30.4,24c-1.9,14.5,5.3,31.4,18.5,38.1
			C956.3,419.8,959.4,414.6,955.9,412.9L955.9,412.9z"/>
	</g>
</g>
<g>
	<g>
		<path d="M955.3,390c3.9,0,3.9-6,0-6C951.5,384,951.5,390,955.3,390L955.3,390z"/>
	</g>
</g>
<g>
	<g>
		<path d="M971.3,383.3c3.9,0,3.9-6,0-6C967.5,377.3,967.5,383.3,971.3,383.3L971.3,383.3z"/>
	</g>
</g>
<g>
	<g>
		<path d="M965.7,403.2c4.5-2,8.9-4.1,13.2-6.4c3.4-1.8,0.4-7-3-5.2c-4.3,2.3-8.7,4.4-13.2,6.4C959.1,399.6,962.1,404.8,965.7,403.2
			L965.7,403.2z"/>
	</g>
</g>
<g>
	<g>
		<path d="M966,391.3c3.9,0,3.9-6,0-6C962.1,385.3,962.1,391.3,966,391.3L966,391.3z"/>
	</g>
</g>
<g>
	<g>
		<path d="M966.2,375.8c0.9-2.6,4.3-3,6.3-1.6c3.1,2.3,6.1-3,3-5.2c-5.3-3.8-13-0.8-15.1,5.2C959.2,377.9,965,379.4,966.2,375.8
			L966.2,375.8z"/>
	</g>
</g>
<g>
	<g>
		<path d="M955.4,377.9c-5.2-3.3-12.7,1-12.5,7.1c0.2,3.8,6.2,3.9,6,0c-0.1-1.7,2.1-2.8,3.4-2C955.7,385.1,958.7,380,955.4,377.9
			L955.4,377.9z"/>
	</g>
</g>
<g>
	<g>
		<path d="M972.8,410.5c1.1,2,2.2,4,3.3,6c1.9,3.4,7,0.4,5.2-3c-1.1-2-2.2-4-3.3-6C976.1,404.1,971,407.1,972.8,410.5L972.8,410.5z"
			/>
	</g>
</g>
<g>
	<g>
		<path d="M1100.9,332.6c-5,8.2-10,16.5-16,24c-6.1,7.6-13.4,13.7-21.2,19.4c-1.4,1-2.2,3.4-0.6,4.7c4.3,3.5,9.2,4.3,14.6,4.3
			c7.7,0,15.4-0.5,23.1-0.4c14.1,0.2,29,4.5,42.7,0.1c1.4-0.4,2.7-2.1,2.1-3.7c-8.3-20-20.2-38-35.4-53.4c-2.7-2.8-7,1.5-4.2,4.2
			c14.4,14.6,25.9,31.8,33.9,50.8c0.7-1.2,1.4-2.5,2.1-3.7c-12,3.8-24.9,0.1-37.2-0.3c-6.2-0.2-12.4-0.1-18.6,0.1
			c-5.8,0.2-13.9,1.7-18.7-2.3c-0.2,1.6-0.4,3.1-0.6,4.7c8.3-6,16-12.3,22.4-20.3c6.4-7.9,11.7-16.6,17-25.2
			C1108.1,332.3,1102.9,329.3,1100.9,332.6L1100.9,332.6z"/>
	</g>
</g>
<g>
	<g>
		<path d="M1089.3,329.4c13.3-0.6,26.3-3.1,38.8-7.4c3.6-1.3,2.1-7.1-1.6-5.8c-12.1,4.2-24.5,6.6-37.2,7.2
			C1085.5,323.5,1085.5,329.5,1089.3,329.4L1089.3,329.4z"/>
	</g>
</g>
<g>
	<g>
		<path d="M1105.9,318.5c-4.3-4.5-4.4-12.9-5.5-18.7c-0.7-3.5-1.3-7.1-2-10.6c-0.3-1.3-1.2-3.5-0.9-4.8c0.5-2.8,2.4-2.3,4.6-2.4
			c4.5-0.2,4,0.3,4.4,4.7c0.4,3.8,0.7,7.6,1,11.5c0.6,7,1.3,14,1.9,21c0.3,3.8,6.3,3.9,6,0c-1-11.1-2-22.3-3-33.4
			c-0.3-3.1-0.2-7.2-3.3-9c-3.2-1.9-9-0.8-12.4-0.2c-9.3,1.5-4.3,12.9-3.2,19.1c1.6,8.7,1.7,20.5,8.2,27.2
			C1104.4,325.5,1108.6,321.3,1105.9,318.5L1105.9,318.5z"/>
	</g>
</g>
<g>
	<g>
		<path d="M1138.9,365.1c5.1-1.1,10.4-2.5,13.5-7c2.8-4,2.5-8.6-0.2-12.6c-7-10-20.4-10.6-31.5-10.6c-3.9,0-3.9,6,0,6
			c7.2,0,15-0.1,21.5,3.6c3.2,1.9,8,5.8,5.5,10c-2,3.3-6.8,4.1-10.3,4.8C1133.5,360.1,1135.1,365.9,1138.9,365.1L1138.9,365.1z"/>
	</g>
</g>
<g>
	<g>
		<path d="M1083.5,358.5c-3.6-1.9-5.4-5.4-7.9-8.3c-2.8-3.1-6.3-5.4-10-7.1c-8.9-3.9-18.6-3.9-28.1-3.8c-3.9,0.1-3.9,6.1,0,6
			c9.3-0.1,19.2-0.4,27.6,4.2c6.4,3.5,9.1,10.8,15.5,14.1C1083.9,365.5,1086.9,360.3,1083.5,358.5L1083.5,358.5z"/>
	</g>
</g>
<g>
	<g>
		<path d="M1053.1,339.5c-0.9-3.3-0.8-6.6,0.7-9.7c1.6-3.5-3.5-6.5-5.2-3c-2.1,4.6-2.6,9.4-1.3,14.3
			C1048.4,344.8,1054.2,343.2,1053.1,339.5L1053.1,339.5z"/>
	</g>
</g>
<g>
	<g>
		<path d="M1094.1,381c-6.6,7.8-13.3,15.4-20.1,22.9c1.6,0.2,3.1,0.4,4.7,0.6c-1.3-2.8-2.1-5.7-2.4-8.8c-0.3-3.8-6.3-3.9-6,0
			c0.4,4.2,1.4,8,3.2,11.8c0.8,1.7,3.5,1.9,4.7,0.6c6.9-7.5,13.6-15.1,20.1-22.9C1100.8,382.3,1096.6,378.1,1094.1,381L1094.1,381z"
			/>
	</g>
</g>
<g>
	<g>
		<path d="M1111.7,383.4c-6.2,6.6-11.2,14.1-14.9,22.3c1.7,0,3.5,0,5.2,0c-1.4-1.9-2.1-3.8-2.4-6.2c-0.5-3.8-6.3-2.2-5.8,1.6
			c0.4,2.8,1.4,5.3,3,7.6c1.1,1.7,4.2,2.2,5.2,0c3.5-7.8,8.1-14.8,14-21.1C1118.6,384.8,1114.4,380.6,1111.7,383.4L1111.7,383.4z"/>
	</g>
</g>
<g>
	<g>
		<path d="M1097.7,360.7c3.8-4.7,9.6-7,15.5-5.6c3.8,0.8,5.4-4.9,1.6-5.8c-7.9-1.8-16.2,0.8-21.4,7.2
			C1091.1,359.4,1095.3,363.7,1097.7,360.7L1097.7,360.7z"/>
	</g>
</g>
<g>
	<g>
		<path d="M1108.3,371.9c2.3-1.1,4.6-2.2,6.8-3.5c-1.5-0.6-2.9-1.2-4.4-1.8c0.7,3.1-0.4,9-4.5,5.4c-2.1-1.8-3.5-4.1-4.7-6.6
			c-1.1-2.3-4-1.6-5.2,0c-2.3,3.1-3.4,6.7-3.3,10.6c0.1,2.2,2.5,3.8,4.5,2.6c4.6-2.7,9.4-4.9,14.5-6.4c3.7-1.1,2.1-6.9-1.6-5.8
			c-5.6,1.7-10.9,4-15.9,7c1.5,0.9,3,1.7,4.5,2.6c-0.1-3,0.7-5.2,2.5-7.6c-1.7,0-3.5,0-5.2,0c2.2,4.7,7.2,11.6,13.1,11.2
			c6.7-0.4,8.2-9.5,7-14.6c-0.4-1.9-2.8-2.7-4.4-1.8c-2.2,1.3-4.4,2.5-6.8,3.5C1101.8,368.3,1104.8,373.5,1108.3,371.9L1108.3,371.9
			z"/>
	</g>
</g>
<g>
	<g>
		<path d="M1036.6,348.1c4.5,3,10.2,2.4,14.3-0.9c1.3-1,1-3.2,0-4.2c-1.2-1.3-3-1-4.2,0c-2.1,1.6-5,1.3-7.1-0.1
			C1036.4,340.8,1033.4,346,1036.6,348.1L1036.6,348.1z"/>
	</g>
</g>
<g>
	<g>
		<path d="M521.5,596.8c5.5,0.9,12.2,1.4,17.4-1.2c4.3-2.1,5.1-6.3,5.6-10.7c0.7-6.9,0.1-13.8-0.7-20.7c-0.2-1.4-2.6-10.7,1.8-8.7
			c2,0.9,2.7,8.2,3.1,9.9c1.1,5,1.4,12.9,5,16.8c3,3.2,8.5,3.3,12.5,3.8c3.2,0.4,6.4,0.8,9.4,1.8c2,0.7,5.9,1.8,3.2,4.8
			c-0.7,0.8-3.2,1-4.1,1.2c-3.4,0.9-6.9,1.3-10.3,1.3c-0.8,0-3.9,0.2-4.6-0.5c0-0.9,0-1.8,0-2.8c1.6-0.3,3.3-0.2,4.9,0.2
			c3.8,0.7,5.4-5.1,1.6-5.8c-5-0.9-11.3-1-13.6,4.6c-1.9,4.7,1.8,8.5,6.1,9.7c6.6,1.8,30.5,0.5,27.7-10.8c-1.4-5.4-8.2-7.8-13-8.8
			c-3.4-0.7-7-0.9-10.4-1.5c-1.2-0.2-3.5-0.3-4.5-1.1c-1.6-1.3-1.7-4.6-2.1-6.5c-1.4-6.1-1.8-14.5-5.6-19.6
			c-2.6-3.5-8.2-5.3-11.7-1.8c-2,2-2.1,4.8-2,7.4c0.3,4.6,1.2,9.2,1.5,13.8c0.3,4.4,0.4,8.8-0.1,13.2c-0.5,4.3-2.7,5.9-6.9,6.4
			c-2.9,0.3-5.7,0.2-8.6-0.3C519.3,590.4,517.7,596.2,521.5,596.8L521.5,596.8z"/>
	</g>
</g>
<g>
	<g>
		<path d="M579.4,596.1c3.1,5.5-2.6,9.5-7.5,10c-2.6,0.2-5.1-0.3-7.6-0.9c-1-0.3-5.7-2.7-6.5-2.4c3.5-1.5,2-7.3-1.6-5.8
			c-3.6,1.5-5.3,5.4-3,8.9c2.9,4.4,11,5.9,15.8,6.2c10.3,0.7,21.7-8.2,15.6-19C582.6,589.7,577.5,592.7,579.4,596.1L579.4,596.1z"/>
	</g>
</g>
<g>
	<g>
		<path d="M578.8,606.1c1.8,5-0.2,10.3-5.2,12.4c-2.3,1-4.8,1.2-7.2,0.7c-1.3-0.3-2.6-0.6-3.8-1.3c-0.3-0.1-6.3-5.1-1.6-5
			c3.9,0.1,3.9-5.9,0-6c-4.7-0.1-8.3,4.3-7.4,8.9c1,5.4,7,8.4,11.9,9.3c11.9,2,23.4-8.6,18.9-20.7
			C583.3,600.9,577.5,602.5,578.8,606.1L578.8,606.1z"/>
	</g>
</g>
<g>
	<g>
		<path d="M553.7,614.1c-7.1,0.2-11.5-3.3-17.8-5.6c-5.2-1.9-10.8-1.4-16.2-0.8c-3.8,0.4-3.8,6.4,0,6c7-0.8,12.4-0.5,18.7,2.8
			c4.8,2.5,9.7,3.8,15.2,3.6C557.5,619.9,557.6,613.9,553.7,614.1L553.7,614.1z"/>
	</g>
</g>
<g>
	<g>
		<path d="M412.3,278.3c0.8,5.2,1,10.5,0.8,15.7c-0.1,3.9,5.9,3.9,6,0c0.2-5.8-0.2-11.6-1.1-17.3
			C417.5,272.9,411.7,274.5,412.3,278.3L412.3,278.3z"/>
	</g>
</g>
<g>
	<g>
		<path d="M408.6,276.7c4.1-1.7,8.3-1.7,12.7-1.6c3.9,0.1,3.9-5.9,0-6c-4.9-0.1-9.7,0-14.3,1.8C403.5,272.3,405,278.1,408.6,276.7
			L408.6,276.7z"/>
	</g>
</g>
<g>
	<g>
		<path d="M428.6,272.6c0.5,6.3,0.7,12.6,0.8,18.9c0,3.9,6,3.9,6,0c-0.1-6.3-0.3-12.6-0.8-18.9C434.3,268.8,428.3,268.8,428.6,272.6
			L428.6,272.6z"/>
	</g>
</g>
<g>
	<g>
		<path d="M441.7,272.4c1.2,2.4,0.3,6.9,0.3,9.6c0,3.4,0,6.7,0,10.1c0,3.9,6,3.9,6,0c0-4.5,0-9,0-13.4c0-3.1,0.3-6.4-1.1-9.2
			C445.3,265.8,440.1,268.9,441.7,272.4L441.7,272.4z"/>
	</g>
</g>
<g>
	<g>
		<path d="M433.7,285.4c3.7,0,7.4,0,11.2,0c3.9,0,3.9-6,0-6c-3.7,0-7.4,0-11.2,0C429.8,279.4,429.8,285.4,433.7,285.4L433.7,285.4z"
			/>
	</g>
</g>
<g>
	<g>
		<path d="M452.6,274c1,1.4,0.2,6.2,0.2,8.2c0,2.6-0.6,6,0.4,8.5c1.7,4.5,9.2,2.2,12.6,1.5c3.8-0.7,2.2-6.5-1.6-5.8
			c-0.8,0.2-6.7,0.2-7.1,0.8c1.4,2.2,1.9,2.5,1.8,1.1c0-0.7,0-1.4,0-2c0-1.1,0-2.3,0-3.4c0-3.5,1-8.9-1.1-11.9
			C455.6,267.9,450.4,270.9,452.6,274L452.6,274z"/>
	</g>
</g>
<g>
	<g>
		<path d="M457.7,282.9c2.9,0.2,5.9,0.2,8.8,0.1c3.9-0.1,3.9-6.1,0-6c-2.9,0.1-5.9,0-8.8-0.1C453.8,276.7,453.8,282.7,457.7,282.9
			L457.7,282.9z"/>
	</g>
</g>
<g>
	<g>
		<path d="M455.7,273.6c4,0.5,8,0.7,12,0.6c3.9-0.1,3.9-6.1,0-6c-4,0.1-8-0.1-12-0.6c-1.6-0.2-3,1.5-3,3
			C452.7,272.4,454.1,273.4,455.7,273.6L455.7,273.6z"/>
	</g>
</g>
<g>
	<g>
		<path d="M498,291.8c-0.1-3.5,0.2-7,0.7-10.4c0.2-1.4,0.4-6.5,1.6-7c-0.8,0.1-1.5,0.2-2.3,0.3c1.1,0.2,2.3,6.2,2.7,7.2
			c0.9,2.8,1.6,5.5,2.3,8.4c0.7,3,4.9,2.7,5.8,0c1.9-6,3.9-11.9,8.5-16.4c-1.7-0.7-3.4-1.4-5.1-2.1c0.8,6.5,1.5,13,2.3,19.4
			c0.4,3.8,6.4,3.8,6,0c-0.7-6.5-1.5-13-2.3-19.4c-0.3-2.5-3.1-4.1-5.1-2.1c-5.3,5.2-7.8,12.1-10,19.1c1.9,0,3.9,0,5.8,0
			c-1.1-5.1-2.5-10.3-4.5-15.1c-1-2.5-2.7-5.1-5.8-4.7c-3.4,0.4-4.2,3.9-4.7,6.6c-1,5.4-1.8,10.8-1.7,16.3
			C492.1,295.7,498.1,295.7,498,291.8L498,291.8z"/>
	</g>
</g>
<g>
	<g>
		<path d="M524.6,272.3c0.5,6.8,1.3,13.6,2.5,20.3c0.7,3.8,6.5,2.2,5.8-1.6c-1.1-6.2-1.8-12.4-2.3-18.7
			C530.3,268.5,524.3,268.5,524.6,272.3L524.6,272.3z"/>
	</g>
</g>
<g>
	<g>
		<path d="M544.3,290.8c-1.7-2.5-1.7-7-1.8-9.8c0-1.4-0.4-4.2,0.5-5.3c3.3-4.3,5.7,4.6,0.8,3.8c-3.8-0.6-5.3,4.6-1.6,5.8
			c2.2,0.7,6.9,2,6.2,5.3c-0.7,3.8,5.1,5.4,5.8,1.6c1.4-7.2-4.4-10.8-10.4-12.7c-0.5,1.9-1.1,3.9-1.6,5.8c5.1,0.9,9.6-1.8,10.2-7.2
			c0.5-4.6-2-9.9-7-10.7c-11.8-1.7-10.3,20.6-6.3,26.5C541.3,297,546.5,294,544.3,290.8L544.3,290.8z"/>
	</g>
</g>
<g>
	<g>
		<path d="M565.1,290.6c-0.7-3.1-1.7-17.6,4.1-17c4.6,0.5,4.1,13.4,4.1,16.9c0.1,3.9,6.1,3.9,6,0c-0.2-6.8-0.1-24.7-11.1-23.2
			c-10.4,1.5-10.6,17.3-8.9,24.9C560.2,296,566,294.4,565.1,290.6L565.1,290.6z"/>
	</g>
</g>
<g>
	<g>
		<path d="M563.5,286.8c3.9,0.2,7.8,0.3,11.7,0.1c3.8-0.1,3.9-6.1,0-6c-3.9,0.1-7.8,0.1-11.7-0.1
			C559.6,280.6,559.6,286.6,563.5,286.8L563.5,286.8z"/>
	</g>
</g>
<g>
	<g>
		<path d="M595.5,269.1c-7.9,0.1-10.9,8.1-10,14.9c1.1,8.4,7.8,9.8,15.2,8.9c3.8-0.4,3.8-6.4,0-6c-3.2,0.4-8.1,1.3-9.1-2.6
			c-0.8-3.2-0.4-9.2,3.9-9.2C599.4,275,599.4,269,595.5,269.1L595.5,269.1z"/>
	</g>
</g>
<g>
	<g>
		<path d="M606.5,271.7c-0.1,5.4,0.4,11.1,2,16.3c1.4,4.5,4.9,5.7,9.5,5.6c11.2-0.3,7.8-16,6.1-22.8c-1-3.7-6.8-2.2-5.8,1.6
			c0.8,3,4.7,16.4-1.9,15.1c-4.5-0.9-3.9-12.1-3.9-15.8C612.5,267.8,606.5,267.8,606.5,271.7L606.5,271.7z"/>
	</g>
</g>
<g>
	<g>
		<path d="M629.5,271c0,6.1-1.9,15.2,2.7,20.1c4.1,4.3,10.6,3.8,14.5-0.3c2.7-2.8-1.6-7-4.2-4.2c-1.4,1.4-3.1,2.2-5,1.1
			c-2.1-1.1-2-3.3-2.1-5.3c-0.1-3.8,0-7.6,0-11.4C635.5,267.1,629.5,267.1,629.5,271L629.5,271z"/>
	</g>
</g>
<g>
	<g>
		<path d="M660.3,288.8c-3.7,0.3-4.2-6.8-4.3-9.1c-0.1-1.7-0.5-9.1,2.8-7.8c3.9,1.6,6.8,16.2,1.8,17.2c-3.8,0.7-2.2,6.5,1.6,5.8
			c12.8-2.4,6.8-30-5.1-29.9c-7.4,0.1-7.5,11.4-7,16.4c0.6,5.8,2.9,14.1,10.2,13.4C664.1,294.4,664.1,288.4,660.3,288.8L660.3,288.8
			z"/>
	</g>
</g>
<g>
	<g>
		<path d="M675,270.5c0.6,8-0.7,23.6,10.4,24c12.6,0.5,10-17.1,8-25c-0.9-3.7-6.7-2.2-5.8,1.6c0.8,3.3,1.4,6.7,1.4,10.2
			c0,1.4,0.1,4.2-0.7,5.4c-0.6,1-3.1,2.5-4.5,1.5c-1.9-1.4-2.2-7.1-2.4-9.2c-0.3-2.8-0.3-5.7-0.5-8.5
			C680.7,266.7,674.7,266.6,675,270.5L675,270.5z"/>
	</g>
</g>
<g>
	<g>
		<path d="M710.2,268c-5.7-0.3-9.8,5.7-8.6,11.1c0.6,2.8,2.5,5.1,5.1,6.4c1.6,0.9,5.5,1,2.1,3.9c-1.3,1.1-4.7,0.6-6.1,0
			c-3.6-1.4-5.1,4.4-1.6,5.8c5,2,14.6,0.3,16.1-5.8c0.6-2.6-0.6-5.1-2.6-6.7c-1.2-1-2.7-1.4-4.1-2.1c-1.3-0.7-2-0.9-2.5-2.4
			c-0.6-1.6-0.1-4.4,2.3-4.2C714.1,274.2,714.1,268.2,710.2,268L710.2,268z"/>
	</g>
</g>
<g>
	<g>
		<path d="M742.4,271.5c-0.1,4.6-0.2,9.2,0.2,13.8c0.3,3.2,0.5,7,3.3,9.1c6,4.4,11.2-2.7,12.2-8c-2-0.3-3.9-0.5-5.9-0.8
			c-0.3,6.5,6.8,12.2,12.9,8.2c2.6-1.8,2.7-5,3.1-7.9c0.6-5.3,0.7-10.6,0.2-15.9c-0.3-3.8-6.3-3.9-6,0c0.3,3.7,0.4,7.4,0.2,11.1
			c-0.1,1.6-0.1,4-0.6,5.5c0.2,1.4-0.4,2.2-1.9,2.3c-1.6-0.7-2.3-1.8-2-3.3c0.1-3.3-5.2-4.1-5.9-0.8c-0.2,1.2-0.9,6.2-3.4,3.3
			c-0.7-0.8-0.5-4.3-0.5-5.3c-0.2-3.8-0.1-7.6,0-11.4C748.4,267.6,742.4,267.6,742.4,271.5L742.4,271.5z"/>
	</g>
</g>
<g>
	<g>
		<path d="M783,269.6c-6.1-4.3-10.1,6.8-10.2,11c-0.1,6.5,2.8,15.5,10.5,16.1c16.2,1.3,15.6-29.7-1.6-27c-3.8,0.6-2.2,6.4,1.6,5.8
			c8.6-1.3,7.3,17.8-0.4,14.9c-4.1-1.5-6.6-14.5-1.1-15.7c-0.8-0.1-1.5-0.2-2.3-0.3c0.2,0.1,0.4,0.3,0.6,0.4
			C783.2,277,786.2,271.8,783,269.6L783,269.6z"/>
	</g>
</g>
<g>
	<g>
		<path d="M806.2,291.2c-1.3-2.4-0.3-8.8-0.2-11.5c0.1-1.1-0.1-4.5,0.8-5.3c2.9-2.9,7.1,3.9-0.3,4.1c-3.3,0.1-4.2,5-0.8,5.9
			c4.1,1,5.9,4.4,4.6,8.4c-1.2,3.7,4.6,5.3,5.8,1.6c2.3-7.1-1.6-14-8.8-15.8c-0.3,2-0.5,3.9-0.8,5.9c4.6-0.2,9.8-1.6,10.5-7
			c0.6-4.8-3-9.9-7.9-10.6c-5.2-0.8-7.7,3.6-8.6,8.1c-0.6,3.3-0.6,6.8-0.6,10.2c0,3-0.4,6.3,1.1,9.1
			C802.9,297.6,808.1,294.6,806.2,291.2L806.2,291.2z"/>
	</g>
</g>
<g>
	<g>
		<path d="M824.2,270.7c-0.1,5.9-0.8,13.4,1.3,19c1.9,5,6.2,5.2,10.9,5.1c3.9-0.1,3.9-6.1,0-6c-2.3,0-4.6,0.6-5.5-2
			c-0.5-1.5-0.4-3.4-0.5-5c-0.2-3.7-0.3-7.5-0.2-11.2C830.3,266.8,824.3,266.8,824.2,270.7L824.2,270.7z"/>
	</g>
</g>
<g>
	<g>
		<path d="M843.6,269.7c0.2,7.4,0.1,14.9-0.2,22.3c-0.2,3.9,5.8,3.9,6,0c0.3-7.4,0.4-14.9,0.2-22.3
			C849.5,265.8,843.5,265.8,843.6,269.7L843.6,269.7z"/>
	</g>
</g>
<g>
	<g>
		<path d="M846.8,272.1c5.2,0.6,11.5,0.9,13,7c1.6,6.6-5,11.4-11,10.3c-3.8-0.7-5.4,5.1-1.6,5.8c9.2,1.7,18.7-4.2,18.8-14.2
			c0-4.3-2-8.4-5.4-11.1c-3.9-3.2-9.1-3.3-13.9-3.8C843,265.7,843,271.7,846.8,272.1L846.8,272.1z"/>
	</g>
</g>
<g>
	<g>
		<path d="M631,332c-0.8,0.1-1.6,0.1-2.4-0.1c-1.1-0.4-1.4-0.4-0.7-0.1c-0.4-0.6-0.3-2.5-0.4-3.2c-0.1-1.9,0-6.2,2.7-6.4
			c2.1-0.2,3.9,3.9,4.4,5.4c0.6,1.5,0.9,7-2.3,5.3c-3.4-1.9-6.4,3.3-3,5.2c5.7,3.1,11.6-1.3,11.9-7.4c0.2-5.2-3.5-12.8-8.9-14.2
			c-6.2-1.6-10.5,4.6-10.8,10c-0.2,2.7-0.1,6.8,1.6,9c1.8,2.3,5.3,2.6,8,2.5C634.8,337.8,634.9,331.8,631,332L631,332z"/>
	</g>
</g>
<g>
	<g>
		<path d="M650.4,334.7c-0.2-3.2-1.1-18.3,5.6-14.2c3.3,2,6.3-3.2,3-5.2c-3.9-2.3-9.1-1.7-11.9,1.9c-3.5,4.4-3,12.3-2.7,17.5
			C644.6,338.5,650.6,338.5,650.4,334.7L650.4,334.7z"/>
	</g>
</g>
<g>
	<g>
		<path d="M645.2,331.2c3.4,0.6,6.7,0.8,10.2,0.4c1.6-0.2,3-1.3,3-3c0-1.5-1.4-3.2-3-3c-2.9,0.3-5.7,0.3-8.6-0.2
			c-1.6-0.3-3.2,0.4-3.7,2.1C642.7,328.9,643.5,330.9,645.2,331.2L645.2,331.2z"/>
	</g>
</g>
<g>
	<g>
		<path d="M932.5,324.1c-1.5-3.1-2.5-6.2-3-9.5c-0.2-1.4-0.4-2.9-0.4-4.3c0-2,0.6-9.5,5.6-6.2c1.6,1.1,3.1-1.5,1.5-2.6
			c-4.3-2.8-8.6,0.5-9.7,4.9c-1.5,6.3,0.7,13.6,3.4,19.3C930.7,327.4,933.3,325.9,932.5,324.1L932.5,324.1z"/>
	</g>
</g>
<g>
	<g>
		<path d="M929.1,314.7c2.5,0.2,5.1-0.1,7.5-0.9c1.8-0.6,1-3.5-0.8-2.9c-2.2,0.7-4.4,1-6.7,0.8C927.2,311.5,927.2,314.5,929.1,314.7
			L929.1,314.7z"/>
	</g>
</g>
<g>
	<g>
		<path d="M946.6,320.7c-1-3.1-3.4-11,2.4-10.5c1.9,0.2,1.9-2.8,0-3c-2.7-0.2-5.3,1.2-6.3,3.7c-1.3,3.2,0,7.5,1,10.6
			C944.3,323.3,947.2,322.5,946.6,320.7L946.6,320.7z"/>
	</g>
</g>
<g>
	<g>
		<path d="M954.2,308.1c-0.2-0.5-0.2-0.3,0,0.6c0.1,0.5,0.2,1.1,0.3,1.6c0.2,0.8,0.3,1.6,0.5,2.5c0.4,1.9,0.7,3.8,1.1,5.7
			c0.4,1.9,3.3,1.1,2.9-0.8c-0.5-2.5-1-4.9-1.4-7.4c-0.3-1.6-0.2-4-1.9-4.8C954,304.6,952.5,307.2,954.2,308.1L954.2,308.1z"/>
	</g>
</g>
<g>
	<g>
		<path d="M953.1,299.7c1.9,0,1.9-3,0-3C951.2,296.7,951.2,299.7,953.1,299.7L953.1,299.7z"/>
	</g>
</g>
<g>
	<g>
		<path d="M965.3,311.9c4.3,1,10.9-0.8,10-6.6c-0.7-4.5-8.6-4.3-11.5-2.2c-3.7,2.7-1.4,9.5,1.2,12.1c4.4,4.4,10.6,2,14.6-1.5
			c1.5-1.3-0.7-3.4-2.1-2.1c-2.2,1.9-5.1,3.8-8.2,2.8c-2.5-0.7-3.9-3.3-4.2-5.7c-0.2-2,0.2-2.9,2-3.6c1-0.4,2.9-0.6,3.9-0.3
			c1.7,0.5,1.6,2,0.5,3.2c-1.4,1.5-3.6,1.3-5.4,0.9C964.2,308.6,963.4,311.5,965.3,311.9L965.3,311.9z"/>
	</g>
</g>
<g>
	<g>
		<path d="M980.9,299.9c0.7,4.2,1.4,8.5,2.2,12.7c1-0.3,1.9-0.5,2.9-0.8c-0.7-2.3-1.4-4.5-1-6.9c0.1-0.9,0.4-1.9,0.7-2.7
			c1.1-2.7,3.1-1.9,4.3,0.1c2.1,3.4,2.6,7.5,3.2,11.3c0.3,1.9,3.2,1.1,2.9-0.8c-0.5-3.4-1-6.9-2.5-10.1c-1-2.3-2.9-5.7-5.8-5.8
			c-3-0.1-4.6,2.8-5.3,5.2c-1.1,3.6-0.6,6.9,0.6,10.4c0.6,1.9,3.2,1.1,2.9-0.8c-0.8-4.2-1.5-8.5-2.2-12.7
			C983.5,297.2,980.6,298.1,980.9,299.9L980.9,299.9z"/>
	</g>
</g>
<g>
	<g>
		<path d="M1004.4,296.4c-8.2-3.1-9.3,17.3,2.3,16.5c12.3-0.8,0.7-24.1-2.4-29.4c-0.8-1.4-3.3-0.5-2.7,1.2c0.5,1.2,0.8,2.5,0.9,3.8
			c0.2,1.9,3.2,1.9,3,0c-0.2-1.6-0.5-3.1-1-4.6c-0.9,0.4-1.8,0.8-2.7,1.2c2.6,4.5,4.7,9.3,6,14.4c0.7,2.9,1.9,6.2,0.1,8.8
			c-0.6,2.1-1.8,2.3-3.6,0.5c-2.1-0.2-3-1.2-2.9-3.2c-0.2-0.8-1.2-7.5,2.2-6.3C1005.5,299.9,1006.2,297,1004.4,296.4L1004.4,296.4z"
			/>
	</g>
</g>
<g>
	<g>
		<path d="M1022.2,291.9c-3.6,0.4-10.8,2-9.4,7.3c0.5,2,2.5,2.7,4.2,3.3c0.8,0.3,1.7,0.6,2.5,0.9c0.3,0.2,0.7,0.3,1,0.5
			c1,0.1,1.1,0.3,0.5,0.6c-0.7,1.3-4.6,1-5.6,0.9c-1.9-0.3-2.7,2.6-0.8,2.9c2.7,0.5,11.4-0.1,9.4-4.8c-0.9-2.1-3.5-2.7-5.4-3.5
			c-1.8-0.7-4.2-1.6-1.6-3.5c1.5-1.1,3.5-1.3,5.2-1.5C1024,294.7,1024.1,291.7,1022.2,291.9L1022.2,291.9z"/>
	</g>
</g>
<g>
	<g>
		<path d="M548.4,722c-7.1-5.2-15.9,8.3-11.5,14.5c2.1,3,7.2,4.3,10.5,2.6c4.2-2,3.8-8.9,3.7-12.8c-1.5,0-3,0-4.5,0
			c0.5,4.2,1,8.4,1.4,12.6c0.3,2.8,4.8,2.9,4.5,0c-0.5-4.2-1-8.4-1.4-12.6c-0.3-2.8-4.6-3-4.5,0c0.1,2.1,0.3,4.8-0.4,6.7
			c-0.7,2.2-2.9,2.8-4.9,1.5c-3.8-2.6,2.2-10.7,4.8-8.7C548.5,727.6,550.7,723.7,548.4,722L548.4,722z"/>
	</g>
</g>
<g>
	<g>
		<path d="M556.3,740c2.9,0,2.9-4.5,0-4.5C553.4,735.5,553.3,740,556.3,740L556.3,740z"/>
	</g>
</g>
<g>
	<g>
		<path d="M562.9,720.8c0.1,5.7,0.2,11.3,0.3,17c0.1,2.9,4.6,2.9,4.5,0c-0.1-5.7-0.2-11.3-0.3-17
			C567.4,717.9,562.9,717.8,562.9,720.8L562.9,720.8z"/>
	</g>
</g>
<g>
	<g>
		<path d="M570.4,723.1c-2.2,1.2-6.2,3.7-5.2,6.7c0.5,1.4,1.9,2.6,2.8,3.8c1.3,1.8,2.4,3.8,3.3,5.9c1.1,2.6,5.5,1.5,4.3-1.2
			c-0.8-1.9-1.6-3.7-2.7-5.4c-0.5-0.8-1-1.5-1.5-2.3c-0.4-0.6-1.7-1.7-1.9-2.4c-0.1,0.6-0.2,1.2-0.2,1.7c0.7-1.3,2.2-2.2,3.5-2.9
			C575.2,725.6,572.9,721.7,570.4,723.1L570.4,723.1z"/>
	</g>
</g>
<g>
	<g>
		<path d="M582.3,740.5c2.9,0,2.9-4.5,0-4.5C579.4,736,579.3,740.5,582.3,740.5L582.3,740.5z"/>
	</g>
</g>
<g>
	<g>
		<path d="M599.4,721.6c-3-2.9-7.1-2-9.7,1.1c-2.8,3.4-3.4,8.7-1.3,12.6c1.8,3.3,5.8,5.9,9.5,3.8c4.8-2.7,3.1-9.5,3.4-13.9
			c-1.5,0.2-2.9,0.4-4.4,0.6c1.3,4.9,2.9,9.7,4.7,14.4c1.1,2.7,5.4,1.5,4.3-1.2c-1.9-4.7-3.4-9.5-4.7-14.4c-0.7-2.6-4.2-1.9-4.4,0.6
			c-0.1,1.9,0,3.7,0,5.6c0,0.7,0.2,2.5-0.3,3.1c-1.1,1.4-2.7,1.2-3.6,0c-1.2-1.5-1.5-3.6-1.1-5.4c0.3-1.5,2.3-5.7,4.4-3.8
			C598.3,726.8,601.5,723.6,599.4,721.6L599.4,721.6z"/>
	</g>
</g>
<g>
	<g>
		<path d="M631.4,709.1c0.2,5.1,0.3,10.1,0.2,15.2c-0.1,4.3-0.4,9.4,1.2,13.6c1.1,2.7,3,3.7,5.9,3.8c5.1,0.2,10.2-0.5,15.2-1.3
			c2.9-0.4,1.6-4.8-1.2-4.3c-3.9,0.6-8.2,1.4-12.2,1.1c-4.6-0.4-4.3-3.6-4.5-7.8c-0.2-6.7,0.1-13.5-0.2-20.2
			C635.7,706.3,631.2,706.2,631.4,709.1L631.4,709.1z"/>
	</g>
</g>
<g>
	<g>
		<path d="M663.1,724.3c-1.1,3.9-2.3,9-0.6,12.9c1.6,3.6,5,4.1,8.6,4.1c3.6,0,5.6-0.8,7.6-3.8c2.5-3.8,1.6-9.5,1.6-13.8
			c0-2.9-4.5-2.9-4.5,0c0.1,3.6,1.6,13-3.9,13.1c-2.8,0.1-5.4,0.1-5.7-3.3c-0.2-2.7,0.4-5.5,1.2-8
			C668.2,722.7,663.9,721.5,663.1,724.3L663.1,724.3z"/>
	</g>
</g>
<g>
	<g>
		<path d="M689.8,722.8c-0.2,5.7-0.1,11.3,0.2,17c0.2,2.9,4.7,2.9,4.5,0c-0.3-5.7-0.4-11.3-0.2-17
			C694.4,719.9,689.9,719.9,689.8,722.8L689.8,722.8z"/>
	</g>
</g>
<g>
	<g>
		<path d="M691.5,712.6c0.1,0,0.1,0,0.2,0c1.2,0,2.3-1,2.3-2.3c-0.1-1.2-1-2.3-2.3-2.3c-0.1,0-0.1,0-0.2,0c-1.2,0-2.3,1-2.3,2.3
			C689.3,711.6,690.2,712.6,691.5,712.6L691.5,712.6z"/>
	</g>
</g>
<g>
	<g>
		<path d="M739.3,739.9c-0.7-2.4-0.4-5.1-0.4-7.6c0-2.7,0-5.4,0-8.1c0-2.9-4.5-2.9-4.5,0c0,5.4-0.9,11.7,0.5,17
			C735.7,743.9,740.1,742.7,739.3,739.9L739.3,739.9z"/>
	</g>
</g>
<g>
	<g>
		<path d="M735.7,711.4c2.9,0,2.9-4.5,0-4.5C732.8,706.9,732.8,711.4,735.7,711.4L735.7,711.4z"/>
	</g>
</g>
<g>
	<g>
		<path d="M719.5,721.3c-4.4-0.5-9.7-0.3-12.6,3.5c-2.6,3.4-2.1,9.1,0.7,12.3c2.7,3,9.5,4,13.1,2.1c5.2-2.6,3.4-10.5,3.2-15
			c-1.5,0-3,0-4.5,0c0.3,5.4,0.5,10.8,0.3,16.3c-0.1,2.4-0.2,4.8-0.7,7.2c-0.5,2.1-1,3.5-3.1,4.6c-2.5,1.4-7.3,1.3-7.5-3.4
			c-0.1-2.9-4.6-2.9-4.5,0c0.3,7.5,11.3,12.5,16.5,6.3c2.8-3.3,3.5-8.1,3.7-12.3c0.4-6.2,0.1-12.4-0.2-18.6c-0.2-2.9-4.6-2.9-4.5,0
			c0.1,2.3,0.6,5.1,0.2,7.3c-0.8,4.2-4.7,5.2-7.9,2.3c-2.5-2.2-2.7-6.1,0.6-7.6c2.2-1,4.8-0.7,7.2-0.5
			C722.4,726.1,722.4,721.6,719.5,721.3L719.5,721.3z"/>
	</g>
</g>
<g>
	<g>
		<path d="M915,334c-5.1-0.2-7.9-4-10.8-7.9c-1.5-2-2.7-4.2-3.7-6.5c-0.4-1.1-1-2.4-1.1-3.5c-0.4-1.3-0.1-2.6,0.9-3.8
			c-0.1-2.8,0.6-3.7,2.3-2.6c4.7,1.6-2.3,7.2-4.2,9c-2.5,2.4-4.6,5-5.2,8.6c-0.9,5.8,3.7,10.5,9.6,9.4c6.6-1.2,9.2-7.9,9.9-13.8
			c0.2-1.9-2.8-1.9-3,0c-0.4,3.6-1.6,7.9-5,9.9c-5.6,3.3-10-2.3-7.7-7.6c1.8-4.1,6.4-6.6,8.9-10.2c2.5-3.5,0.7-10-4.5-9.1
			c-8.3,1.5-5.1,12.4-2.7,17.1c3.2,6.4,8.5,13.7,16.2,13.9C916.9,337.1,916.9,334.1,915,334L915,334z"/>
	</g>
</g>
<g>
	<g>
		<path d="M109.5,100.8c14.7,0,29.3,0,44,0c2.9,0,2.9-4.5,0-4.5c-14.7,0-29.3,0-44,0C106.6,96.3,106.6,100.8,109.5,100.8
			L109.5,100.8z"/>
	</g>
</g>
<g>
	<g>
		<path d="M110,112.3c14-0.3,28-0.2,42,0.3c2.9,0.1,2.9-4.4,0-4.5c-14-0.5-28-0.6-42-0.3C107.1,107.9,107.1,112.4,110,112.3
			L110,112.3z"/>
	</g>
</g>
<g>
	<g>
		<path d="M109.5,124.3c14.7,0,29.3,0,44,0c2.9,0,2.9-4.5,0-4.5c-14.7,0-29.3,0-44,0C106.6,119.8,106.6,124.3,109.5,124.3
			L109.5,124.3z"/>
	</g>
</g>
<g>
	<path class="st0" d="M1242.8,903.6c-1-16.3-12.4-28.1-28.5-29.8c-3.8-0.4-3.8,5.6,0,6c16,1.8,25.5,16.9,21.9,32.4
		c-3.3,14.2-17.9,21.2-31.7,20.1c-14.9-1.3-23.6-13.3-22.8-27.7c0.8-15.5,11.7-23.9,25.8-27.6c3.7-1,2.2-6.8-1.6-5.8
		c-12.7,3.3-24.2,10.2-28.5,23.2c-4,12.3-1.8,27.6,8.2,36.4c1.1,1,2.4,1.9,3.6,2.7c-0.4,10.5,1.9,23-5.1,31.8
		c-1.6-1.3-2.9-2.8-4.7-3.9c-2.6-1.6-4.6-1.1-6.1,0.4c-1.9-2.4-4.5-4-7.7-2.9c-4.6,1.5-5.3,7.1-5.9,11.2c-0.7,5.2-1.8,12.1-0.4,17.3
		c1.4,5.1,6.5,6.9,11.1,7.9c0.6,0.1,1.1,0.1,1.6-0.1c2.5,1.3,5.7,1.3,9.1,0.9c0.2,0,0.4-0.1,0.6-0.1c14.7,0.7,33.3,0.5,43.4-12
		c4.8-6,4.1-14.6,3.6-21.8c-0.6-9.7-1.9-19.3-1.5-29C1237.6,927.1,1243.5,915.9,1242.8,903.6z M1165.2,985.7c-0.8-2-0.1-5.7,0-7.8
		c0.1-2.5,0.3-5,0.6-7.5c0.1-0.8,0.2-3.1,0.7-3.7c1-1.1,2.7-0.7,3.5,0.8c0.1,0.1,0.2,0.2,0.2,0.3c-0.2,0.5-0.3,1.1-0.4,1.6
		c-1.3,5.7-2.8,12.8-1.9,18.8C1166.7,987.7,1165.7,986.9,1165.2,985.7z M1221.2,978.9c-3.5,6-11.6,8.8-18,10.1
		c-7.7,1.6-15.6,1.2-23.4,0.8c-0.8,0-1.5,0.2-2,0.7c-1.5,0.1-2.9-0.2-3.6-1.7c-1-1.9-0.3-5.3-0.2-7.4c0.3-3.1,0.7-6.2,1.4-9.3
		c0.3-1.2,0.5-2.5,0.9-3.7c0.2-0.5,0.4-1.1,0.6-1.6c0.1,0.1,0.2,0.1,0.4,0.2c1.6,0.8,2.7,2.8,4.3,3.7c2.5,1.6,5.8,2.6,8.7,3.1
		c4.1,0.8,9.5,1.1,12.5-2.5c2.4-3-1.8-7.2-4.2-4.2c-1.7,2.1-5.6,1.5-8.8,0.6c6.3-9.3,5.4-20.5,5.5-31.5c8.2,2.9,17.7,2.6,25.9-0.3
		c-0.1,6.8,0.6,13.6,1.1,20.3C1222.9,963,1224.7,972.9,1221.2,978.9z"/>
	<path class="st0" d="M1209.1,920.9c1.8,0,2.8-1.4,3-3c0.2-2,0.2-4.1,0.1-6.1c-0.1-1.6-1.3-3-3-3c-1.6,0-3.1,1.4-3,3
		c0.1,2,0.1,4.1-0.1,6.1C1205.9,919.5,1207.5,920.9,1209.1,920.9z"/>
	<path class="st0" d="M1190.7,911c0,1.6,0,3.3,0,4.9c0,1.6,1.4,3.1,3,3c1.6-0.1,3-1.3,3-3c0-1.6,0-3.3,0-4.9c0-1.6-1.4-3.1-3-3
		C1192.1,908.1,1190.7,909.4,1190.7,911z"/>
</g>
</svg>
