<svg width="677.33mm" height="381mm" version="1.1" viewBox="0 0 677.33 381" xmlns="http://www.w3.org/2000/svg" xmlns:xlink="http://www.w3.org/1999/xlink">
 <g transform="translate(174.25 29.86)">
  <image x="-174.25" y="-29.86" width="677.33" height="381" preserveAspectRatio="none" xlink:href="../../../Desktop/WEBPortfolio/JULIANWEB/index/bilder/personal.jpg"/>
  <g fill="#28f708">
   <path d="m74.314 79.319 21.649-15.234h64.679l6.6818-0.4009 18.041-1.6036h17.105s33.81 0.26727 33.275 0.26727 11.493 16.838 11.493 16.838l2.1382 4.009 5.7463-4.5436 5.2117 22.985 0.93546 27.395-1.47 10.424-21.916 0.13363-79.379 1.3364-88.199-0.93545 1.47-14.967 2.4054-27.93z"/>
   <path d="m75.879 174.81-2.7403-9.2604s-1.3229-7.276 0.09449-9.0714c1.4174-1.7954 3.8743-4.3467 3.8743-4.3467s8.599-6.2366 19.088 0.28349c3.0238 2.3624 6.3311 8.8824 6.3311 8.8824l0.94496 0.47247s6.0476-9.7329 17.67-1.7954c2.9293 2.1734 6.5201 9.3549 4.4412 16.631-2.1734 3.4018-4.8192 4.6302-4.8192 4.6302l-8.41-0.37798-11.906 0.18899h-20.505s-3.2128-1.5119-4.0632-6.2366z"/>
   <path d="m218.66 181.15s12.095-11.15 14.269-10.489c2.1734 0.66146 2.2678-1.5119 2.2678-1.5119l0.189-4.9137-3.4963-2.2678s-3.3073-3.0238 0.94493-8.032c3.1183-2.0789 4.3467-3.0238 4.3467-3.0238l-3.5908-3.1183s1.6064-1.9844 4.1577-0.37798c2.5513 1.6064 3.4018 4.1577 3.4018 4.1577s8.788-2.9293 10.678 0.47247c1.8899 3.4018-1.6064 5.6696-4.3467 7.9375-0.85045-2.0789-1.9844-2.1734-1.9844-2.1734s-2.9293 6.8981-6.2366 7.087c-0.28348 1.3229-0.75595 4.9137-0.75595 4.9137l1.7009 2.6458 0.47246 2.2678s5.7641 4.3467 8.788 5.0082c0.94493-1.9844 2.4568-9.3549 7.087-9.0714s8.788 3.4018 8.221 9.0714c-1.3229 1.4174-46.113 1.4174-46.113 1.4174z"/>
   <path transform="rotate(-90 448.66 299.36)" d="m448.66 323.22-20.664-35.791h41.328z"/>
  </g>
 </g>
</svg>
